<svg id="Layer_1" data-name="Layer 1" xmlns="http://www.w3.org/2000/svg" xmlns:xlink="http://www.w3.org/1999/xlink" width="238.68px" height="79.52px" viewBox="0 0 238.68 79.52"><defs><style>.cls-1{fill:none;}.cls-2{fill:#66af45;}.cls-3{clip-path:url(#clip-path);}.cls-4{fill:#fff;}</style><clipPath id="clip-path"><rect class="cls-1" width="238.68" height="79.52"/></clipPath></defs><title>logo</title><rect class="cls-2" x="102.49" y="55.76" width="136.19" height="23.76"/><g class="cls-3"><path class="cls-4" d="M226.16,70.39A2.74,2.74,0,0,1,224,71.58a2.11,2.11,0,0,1-1.72-.78,3.54,3.54,0,0,1,0-4.06A2.11,2.11,0,0,1,224,66a2.54,2.54,0,0,1,1.25.34,2.47,2.47,0,0,1,.92.84Zm-5.63,4.4a4,4,0,0,0,1.43.91,5.45,5.45,0,0,0,1.77.26,4.59,4.59,0,0,0,2.78-.81,3.09,3.09,0,0,0,1.11-2.67V65h-1.46V66.1a3.34,3.34,0,0,0-1.14-1,3.09,3.09,0,0,0-1.43-.35,3.38,3.38,0,0,0-1.8.48,3.28,3.28,0,0,0-1.23,1.39,5.34,5.34,0,0,0,0,4.27,3.28,3.28,0,0,0,1.23,1.39,3.38,3.38,0,0,0,1.8.48,3,3,0,0,0,1.43-.36,3.57,3.57,0,0,0,1.14-1v1a2.09,2.09,0,0,1-.7,1.74,2.68,2.68,0,0,1-1.72.56,3.86,3.86,0,0,1-1.43-.24,2.75,2.75,0,0,1-1.08-.79Zm-4.14-2h1.46V67.29a2.56,2.56,0,0,0-.64-1.89,2.53,2.53,0,0,0-1.87-.64,3.43,3.43,0,0,0-1.59.38,3.63,3.63,0,0,0-1.18.91V65H211.1v7.82h1.46V67.12a2.88,2.88,0,0,1,.92-.81,2.43,2.43,0,0,1,1.23-.34,1.74,1.74,0,0,1,1.24.4,1.77,1.77,0,0,1,.43,1.34Zm-9.48,0h1.46V65H206.9Zm.71-8.85a.94.94,0,0,0,.94-.94.88.88,0,0,0-.28-.66,1,1,0,0,0-1.33,0,.88.88,0,0,0-.27.66.89.89,0,0,0,.28.66.92.92,0,0,0,.66.27m-9.4,7.82a3.72,3.72,0,0,0,1.42.93,5.16,5.16,0,0,0,1.83.32,3.6,3.6,0,0,0,2.32-.67,2.12,2.12,0,0,0,.83-1.73,2,2,0,0,0-.43-1.32,2.53,2.53,0,0,0-1-.72,11.35,11.35,0,0,0-1.53-.44,7.65,7.65,0,0,1-1.38-.43.66.66,0,0,1-.43-.63.91.91,0,0,1,.44-.78,2,2,0,0,1,1.17-.3,3.34,3.34,0,0,1,1.34.27,2.6,2.6,0,0,1,1,.69l.65-1a4.13,4.13,0,0,0-3-1.13,3.82,3.82,0,0,0-1.59.31,2.47,2.47,0,0,0-1,.82,1.94,1.94,0,0,0-.36,1.13,1.7,1.7,0,0,0,.41,1.2,2.48,2.48,0,0,0,1,.66,12,12,0,0,0,1.48.42,6.12,6.12,0,0,1,1.43.47.82.82,0,0,1,.46.77,1.1,1.1,0,0,1-.44.91,2,2,0,0,1-1.25.35,3.59,3.59,0,0,1-1.47-.32,3.32,3.32,0,0,1-1.15-.79Zm-3.53,1h1.46V67.29a2.56,2.56,0,0,0-.64-1.89,2.53,2.53,0,0,0-1.87-.64,3.42,3.42,0,0,0-1.58.38,3.66,3.66,0,0,0-1.18.91V65H189.4v7.82h1.46V67.12a2.89,2.89,0,0,1,.92-.81A2.42,2.42,0,0,1,193,66a1.75,1.75,0,0,1,1.24.4,1.77,1.77,0,0,1,.43,1.34ZM183.33,66a2.48,2.48,0,0,1,1.31.33,2.1,2.1,0,0,1,.79.83,2.39,2.39,0,0,1,.28,1h-4.76a2.5,2.5,0,0,1,.31-1,2.23,2.23,0,0,1,.8-.83,2.36,2.36,0,0,1,1.27-.33m-3.91,2.91a4.31,4.31,0,0,0,.52,2.15,3.75,3.75,0,0,0,1.44,1.45,4.13,4.13,0,0,0,2.08.52,5,5,0,0,0,1.76-.3,3.92,3.92,0,0,0,1.38-.87l-.68-1a2.84,2.84,0,0,1-1.05.68,3.48,3.48,0,0,1-1.26.24,2.55,2.55,0,0,1-1.85-.7,2.64,2.64,0,0,1-.8-1.74h6.18V69a4.94,4.94,0,0,0-.46-2.16,3.61,3.61,0,0,0-1.33-1.51,3.68,3.68,0,0,0-2-.55,3.78,3.78,0,0,0-2,.55,3.84,3.84,0,0,0-1.4,1.49,4.3,4.3,0,0,0-.5,2.06m-8.21,2.87a3.7,3.7,0,0,0,1.42.93,5.16,5.16,0,0,0,1.83.32,3.6,3.6,0,0,0,2.32-.67,2.12,2.12,0,0,0,.83-1.73,2,2,0,0,0-.43-1.32,2.53,2.53,0,0,0-1-.72,11.35,11.35,0,0,0-1.53-.44,7.65,7.65,0,0,1-1.38-.43.66.66,0,0,1-.43-.63.91.91,0,0,1,.44-.78,2,2,0,0,1,1.17-.3,3.34,3.34,0,0,1,1.34.27,2.6,2.6,0,0,1,1,.69l.65-1a4.14,4.14,0,0,0-3-1.13,3.82,3.82,0,0,0-1.59.31,2.47,2.47,0,0,0-1,.82,1.92,1.92,0,0,0-.36,1.13,1.7,1.7,0,0,0,.41,1.2,2.48,2.48,0,0,0,1,.66,12.06,12.06,0,0,0,1.48.42,6.12,6.12,0,0,1,1.43.47.82.82,0,0,1,.46.77,1.1,1.1,0,0,1-.44.91,2,2,0,0,1-1.25.35,3.6,3.6,0,0,1-1.47-.32,3.31,3.31,0,0,1-1.15-.79Zm-10-5.78a2.47,2.47,0,0,1,1.31.33,2.09,2.09,0,0,1,.79.83,2.37,2.37,0,0,1,.27,1h-4.76a2.47,2.47,0,0,1,.31-1,2.23,2.23,0,0,1,.8-.83,2.36,2.36,0,0,1,1.27-.33m-3.92,2.91a4.31,4.31,0,0,0,.53,2.15,3.75,3.75,0,0,0,1.44,1.45,4.13,4.13,0,0,0,2.08.52,4.94,4.94,0,0,0,1.76-.3,3.89,3.89,0,0,0,1.38-.87l-.68-1a2.84,2.84,0,0,1-1.05.68,3.48,3.48,0,0,1-1.26.24,2.55,2.55,0,0,1-1.85-.7,2.63,2.63,0,0,1-.8-1.74H165V69a4.94,4.94,0,0,0-.46-2.16,3.59,3.59,0,0,0-1.33-1.51,3.67,3.67,0,0,0-2-.55,3.78,3.78,0,0,0-2,.55,3.85,3.85,0,0,0-1.4,1.49,4.32,4.32,0,0,0-.5,2.06M154.54,73a2.26,2.26,0,0,0,1.52-.47l-.37-1a.88.88,0,0,1-.33.22,1.2,1.2,0,0,1-.46.09.65.65,0,0,1-.57-.28,1.21,1.21,0,0,1-.19-.71V66.16h1.59V65h-1.59V62.83h-1.46V65h-1.29v1.2h1.29V71a2,2,0,0,0,.47,1.45,1.8,1.8,0,0,0,1.39.51m-8.38-1.2a2.13,2.13,0,0,1-1.3-.4,2.58,2.58,0,0,1-.84-1.07,3.71,3.71,0,0,1,0-2.89,2.56,2.56,0,0,1,.84-1.06,2.13,2.13,0,0,1,1.3-.4,2.18,2.18,0,0,1,1.31.4,2.45,2.45,0,0,1,.83,1.06,3.86,3.86,0,0,1,0,2.9,2.52,2.52,0,0,1-.83,1.07,2.16,2.16,0,0,1-1.31.4m0,1.2a3.9,3.9,0,0,0,2.08-.55,3.74,3.74,0,0,0,1.38-1.49,4.46,4.46,0,0,0,.49-2.08,4.4,4.4,0,0,0-.49-2.07,3.74,3.74,0,0,0-1.38-1.48,4.2,4.2,0,0,0-4.16,0,3.72,3.72,0,0,0-1.38,1.48,4.41,4.41,0,0,0-.49,2.07,4.46,4.46,0,0,0,.49,2.08,3.72,3.72,0,0,0,1.38,1.49,3.89,3.89,0,0,0,2.08.55m-7.67-.21h1.46V67.13a2.47,2.47,0,0,0-.57-1.76,2.16,2.16,0,0,0-1.65-.6,3,3,0,0,0-1.54.43,3.13,3.13,0,0,0-1.1,1,2,2,0,0,0-.73-1.06,2.28,2.28,0,0,0-1.39-.4,3.32,3.32,0,0,0-2.52,1.29V65H129v7.82h1.46V67.12a2.9,2.9,0,0,1,.85-.81,2,2,0,0,1,1.06-.34q1.38,0,1.38,1.53v5.29h1.46V67.1a2.75,2.75,0,0,1,.84-.8,2,2,0,0,1,1.1-.34,1.26,1.26,0,0,1,1,.4,1.72,1.72,0,0,1,.33,1.12ZM122.92,66a2.47,2.47,0,0,1,1.31.33,2.09,2.09,0,0,1,.79.83,2.37,2.37,0,0,1,.27,1h-4.76a2.47,2.47,0,0,1,.31-1,2.23,2.23,0,0,1,.8-.83,2.36,2.36,0,0,1,1.27-.33M119,68.87a4.31,4.31,0,0,0,.53,2.15A3.75,3.75,0,0,0,121,72.47,4.13,4.13,0,0,0,123,73a4.94,4.94,0,0,0,1.76-.3,3.91,3.91,0,0,0,1.38-.87l-.68-1a2.84,2.84,0,0,1-1.05.68,3.48,3.48,0,0,1-1.26.24,2.55,2.55,0,0,1-1.85-.7,2.63,2.63,0,0,1-.8-1.74h6.18V69a4.94,4.94,0,0,0-.46-2.16,3.59,3.59,0,0,0-1.33-1.51,3.67,3.67,0,0,0-2-.55,3.78,3.78,0,0,0-2,.55,3.83,3.83,0,0,0-1.4,1.49,4.32,4.32,0,0,0-.5,2.06m-5.42,3.91H115V67.24a2.29,2.29,0,0,1,.88-.8,2.37,2.37,0,0,1,1.17-.36,2.45,2.45,0,0,1,.5,0V64.77a2.78,2.78,0,0,0-1.42.39,3.82,3.82,0,0,0-1.14,1V65h-1.46Z"/></g><polygon class="cls-4" points="113 10.9 122.45 10.9 130.85 37.55 130.98 37.55 139.12 10.9 147.91 10.9 135.45 47.49 125.54 47.49 113 10.9"/><rect class="cls-4" x="152.77" y="10.9" width="8.79" height="36.6"/><path class="cls-4" d="M173,17.86h-6.49v-7H173V3.58L181.84.52V10.9h7.81v7h-7.81V34.91c0,3.13.79,6,4.13,6a7.37,7.37,0,0,0,4-1l.26,7.53a21.45,21.45,0,0,1-6.5.85c-6.89,0-10.7-4.62-10.7-11.87Z"/><path class="cls-4" d="M210.51,41c6.76,0,8.53-6.54,8.53-12.65,0-5.61-2.76-10.87-8.53-10.87S202,22.84,202,28.31c0,6,1.77,12.65,8.47,12.65m0-30.91c10,0,17.72,7.32,17.72,19.4,0,10.52-6.5,18.9-17.72,18.9S192.86,40,192.86,29.44c0-12.08,7.68-19.4,17.65-19.4"/><rect class="cls-1" width="238.68" height="79.52"/><path class="cls-4" d="M22.69,72.63S37-11.42,101.87,40.69c0,0-46.15-22.95-79.18,31.94"/><path class="cls-4" d="M82.3,0S58.46,64.12,0,20.75C0,20.75,41.82,44.88,82.3,0"/><path class="cls-4" d="M4.69,68.65S52.38-10,104.91,33.12c0,0-54.65-17.85-100.22,35.52"/><rect class="cls-1" width="238.68" height="79.52"/></svg>